<svg 
 xmlns="http://www.w3.org/2000/svg"
 xmlns:xlink="http://www.w3.org/1999/xlink"
 width="35px" height="34px">
<defs>
<filter filterUnits="userSpaceOnUse" id="Filter_0" x="0px" y="0px" width="35px" height="34px"  >
    <feOffset in="SourceAlpha" dx="0" dy="1" />
    <feGaussianBlur result="blurOut" stdDeviation="1" />
    <feFlood flood-color="rgb(0, 0, 0)" result="floodOut" />
    <feComposite operator="atop" in="floodOut" in2="blurOut" />
    <feComponentTransfer><feFuncA type="linear" slope="0.25"/></feComponentTransfer>
    <feMerge>
    <feMergeNode/>
    <feMergeNode in="SourceGraphic"/>
  </feMerge>
</filter>

</defs>
<g filter="url(#Filter_0)">
<path fill-rule="evenodd"  fill="rgb(255, 255, 255)"
 d="M16.806,30.764 C8.328,30.764 1.456,23.882 1.456,15.393 C1.456,6.903 8.328,0.021 16.806,0.021 C25.283,0.021 32.156,6.903 32.156,15.393 C32.156,23.882 25.283,30.764 16.806,30.764 ZM16.969,12.741 C16.969,9.268 13.194,9.547 13.194,9.547 L7.596,9.549 L7.603,21.872 L12.826,21.837 C12.826,21.837 17.320,22.183 17.360,18.148 C17.360,15.798 15.465,15.234 15.465,15.234 C15.465,15.234 16.969,14.689 16.969,12.741 ZM25.305,10.217 L20.513,10.217 L20.513,11.592 L25.305,11.592 L25.305,10.217 ZM22.854,12.325 C18.267,12.325 18.493,17.138 18.493,17.138 C18.493,17.138 18.237,21.877 22.944,21.877 C26.568,21.877 27.094,18.885 27.094,18.885 L24.763,18.885 C24.763,18.885 24.387,19.940 23.004,19.925 C20.733,19.925 20.809,17.726 20.809,17.726 L27.199,17.695 C27.199,17.695 27.861,12.325 22.854,12.325 ZM22.839,14.293 C24.808,14.293 24.854,16.160 24.854,16.160 L20.854,16.190 C20.854,16.190 21.004,14.293 22.839,14.293 ZM12.723,19.704 L10.117,19.694 L10.107,16.411 C10.107,16.411 11.692,16.421 12.758,16.421 C12.754,16.421 14.768,16.280 14.768,17.947 C14.768,19.944 12.723,19.704 12.723,19.704 ZM12.743,14.398 L10.112,14.413 L10.112,11.688 L12.385,11.699 C12.385,11.699 14.518,11.416 14.518,13.013 C14.518,14.609 12.743,14.398 12.743,14.398 Z"/>
</g>
</svg>