<svg 
 xmlns="http://www.w3.org/2000/svg"
 xmlns:xlink="http://www.w3.org/1999/xlink"
 width="34px" height="34px">
<defs>
<filter filterUnits="userSpaceOnUse" id="Filter_0" x="0px" y="0px" width="34px" height="34px"  >
    <feOffset in="SourceAlpha" dx="0" dy="1" />
    <feGaussianBlur result="blurOut" stdDeviation="1" />
    <feFlood flood-color="rgb(0, 0, 0)" result="floodOut" />
    <feComposite operator="atop" in="floodOut" in2="blurOut" />
    <feComponentTransfer><feFuncA type="linear" slope="0.25"/></feComponentTransfer>
    <feMerge>
    <feMergeNode/>
    <feMergeNode in="SourceGraphic"/>
  </feMerge>
</filter>

</defs>
<g filter="url(#Filter_0)">
<path fill-rule="evenodd"  fill="rgb(255, 255, 255)"
 d="M16.644,31.009 C8.166,31.009 1.294,24.126 1.294,15.637 C1.294,7.147 8.166,0.265 16.644,0.265 C25.121,0.265 31.994,7.147 31.994,15.637 C31.994,24.126 25.121,31.009 16.644,31.009 ZM16.546,3.731 C9.946,3.731 4.595,9.100 4.595,15.724 C4.595,22.347 9.946,27.716 16.546,27.716 C23.147,27.716 28.498,22.347 28.498,15.724 C28.498,9.100 23.147,3.731 16.546,3.731 ZM19.404,15.210 C19.132,14.525 18.850,13.854 18.553,13.209 C22.130,11.829 24.182,9.458 24.182,9.458 C24.182,9.458 26.206,11.639 26.388,15.193 C26.388,15.178 22.467,14.623 19.404,15.210 ZM14.049,6.157 C14.049,6.157 18.845,4.626 22.988,8.237 C20.753,10.510 17.771,11.625 17.771,11.625 C16.451,8.649 14.049,6.157 14.049,6.157 ZM6.905,13.641 C6.905,13.641 7.620,9.211 12.104,6.894 C14.554,9.848 15.825,12.313 15.825,12.313 C15.825,12.313 12.168,13.504 6.905,13.641 ZM17.441,15.644 C17.441,15.644 12.774,16.496 9.041,22.138 C6.368,19.036 6.702,15.348 6.702,15.329 C13.430,15.117 16.642,13.881 16.642,13.881 L17.441,15.644 ZM18.121,17.369 C19.233,19.948 20.084,24.956 20.084,24.956 C20.084,24.956 15.249,27.144 10.494,23.529 C10.502,23.529 13.193,18.747 18.121,17.369 ZM26.331,16.982 C25.687,21.930 21.967,23.990 21.967,23.990 C21.345,20.360 20.052,16.938 20.052,16.938 C20.052,16.938 23.030,16.445 26.331,16.982 Z"/>
</g>
</svg>