<svg 
 xmlns="http://www.w3.org/2000/svg"
 xmlns:xlink="http://www.w3.org/1999/xlink"
 width="49px" height="49px">
<defs>
<filter filterUnits="userSpaceOnUse" id="Filter_0" x="0px" y="0px" width="49px" height="49px"  >
    <feOffset in="SourceAlpha" dx="0" dy="1" />
    <feGaussianBlur result="blurOut" stdDeviation="1" />
    <feFlood flood-color="rgb(0, 0, 0)" result="floodOut" />
    <feComposite operator="atop" in="floodOut" in2="blurOut" />
    <feComponentTransfer><feFuncA type="linear" slope="0.25"/></feComponentTransfer>
    <feMerge>
    <feMergeNode/>
    <feMergeNode in="SourceGraphic"/>
  </feMerge>
</filter>

</defs>
<g filter="url(#Filter_0)">
<path fill-rule="evenodd"  fill="rgb(255, 255, 255)"
 d="M24.475,45.950 C12.049,45.950 1.975,35.876 1.975,23.450 C1.975,11.023 12.049,0.950 24.475,0.950 C36.901,0.950 46.975,11.023 46.975,23.450 C46.975,35.876 36.901,45.950 24.475,45.950 ZM20.724,10.471 C17.281,10.471 15.706,11.388 14.660,12.283 C13.748,13.194 12.533,14.555 12.567,16.800 C12.567,18.741 14.001,22.105 18.103,22.122 C18.373,22.105 18.536,22.116 19.177,22.066 C18.958,22.571 18.862,22.887 18.845,23.359 C18.845,24.220 19.155,24.822 19.847,25.632 C17.872,25.835 15.343,25.941 13.433,27.207 C10.339,29.098 10.665,31.365 10.665,31.331 C10.902,36.310 18.108,36.208 18.086,36.174 C23.869,36.118 26.789,32.936 26.789,29.750 C26.789,28.035 26.104,26.452 24.160,25.048 C23.307,24.272 22.059,23.816 22.064,22.686 C22.064,20.626 25.855,20.183 25.855,16.198 C25.722,13.158 23.672,11.848 23.410,11.679 C23.465,11.679 25.511,11.680 25.511,11.680 L27.683,10.471 C27.683,10.471 20.758,10.471 20.724,10.471 ZM37.758,13.478 L34.586,13.478 L34.586,10.305 L32.470,10.305 L32.470,13.478 L29.297,13.478 L29.297,15.593 L32.470,15.593 L32.470,18.766 L34.586,18.766 L34.586,15.593 L37.758,15.593 L37.758,13.478 ZM19.438,21.209 C16.552,21.049 15.606,16.770 15.606,16.770 C15.606,16.770 14.484,11.716 18.530,11.671 C21.689,11.330 22.771,16.188 22.771,16.188 C22.771,16.188 23.916,21.209 19.438,21.209 ZM24.707,31.123 C24.623,31.258 25.095,34.560 19.694,34.762 C13.889,34.661 13.765,30.982 13.765,30.644 C13.741,26.809 18.910,26.618 20.240,26.577 C21.388,26.723 24.667,28.627 24.707,31.123 Z"/>
</g>
</svg>