<svg 
 xmlns="http://www.w3.org/2000/svg"
 xmlns:xlink="http://www.w3.org/1999/xlink"
 width="48px" height="48px">
<defs>
<filter filterUnits="userSpaceOnUse" id="Filter_0" x="0px" y="0px" width="48px" height="48px"  >
    <feOffset in="SourceAlpha" dx="0" dy="1" />
    <feGaussianBlur result="blurOut" stdDeviation="1" />
    <feFlood flood-color="rgb(0, 0, 0)" result="floodOut" />
    <feComposite operator="atop" in="floodOut" in2="blurOut" />
    <feComponentTransfer><feFuncA type="linear" slope="0.25"/></feComponentTransfer>
    <feMerge>
    <feMergeNode/>
    <feMergeNode in="SourceGraphic"/>
  </feMerge>
</filter>

</defs>
<g filter="url(#Filter_0)">
<path fill-rule="evenodd"  fill="rgb(255, 255, 255)"
 d="M23.499,45.000 C11.073,45.000 0.999,34.926 0.999,22.499 C0.999,10.073 11.073,-0.001 23.499,-0.001 C35.925,-0.001 45.999,10.073 45.999,22.499 C45.999,34.926 35.925,45.000 23.499,45.000 ZM30.994,30.137 C27.117,31.923 24.988,31.313 24.988,28.260 C24.988,26.670 24.992,21.993 24.992,21.993 L30.000,21.993 L30.000,17.982 L24.987,17.984 L24.987,11.959 C24.987,11.959 22.697,11.958 21.588,11.958 C21.402,14.736 20.468,16.308 17.014,18.005 C17.014,19.134 17.011,21.970 17.011,21.970 L20.000,21.970 C20.000,21.970 20.000,29.655 20.000,30.989 C20.000,33.630 22.408,34.655 24.119,34.905 C26.237,35.214 28.874,34.829 30.994,34.132 C30.994,32.886 30.994,31.757 30.994,30.137 Z"/>
</g>
</svg>