<svg 
 xmlns="http://www.w3.org/2000/svg"
 xmlns:xlink="http://www.w3.org/1999/xlink"
 width="34px" height="34px">
<defs>
<filter filterUnits="userSpaceOnUse" id="Filter_0" x="0px" y="0px" width="34px" height="34px"  >
    <feOffset in="SourceAlpha" dx="0" dy="1" />
    <feGaussianBlur result="blurOut" stdDeviation="1" />
    <feFlood flood-color="rgb(0, 0, 0)" result="floodOut" />
    <feComposite operator="atop" in="floodOut" in2="blurOut" />
    <feComponentTransfer><feFuncA type="linear" slope="0.25"/></feComponentTransfer>
    <feMerge>
    <feMergeNode/>
    <feMergeNode in="SourceGraphic"/>
  </feMerge>
</filter>

</defs>
<g filter="url(#Filter_0)">
<path fill-rule="evenodd"  fill="rgb(255, 255, 255)"
 d="M16.537,30.747 C8.060,30.747 1.187,23.865 1.187,15.375 C1.187,6.886 8.060,0.004 16.537,0.004 C25.015,0.004 31.887,6.886 31.887,15.375 C31.887,23.865 25.015,30.747 16.537,30.747 ZM24.698,13.855 C23.512,9.722 20.664,9.722 20.664,9.722 C20.664,9.722 21.873,9.035 21.838,8.615 C21.466,8.348 20.720,8.884 20.657,8.884 C20.845,8.751 20.733,8.373 20.489,8.231 C20.129,8.266 19.815,8.930 19.815,8.930 C19.815,8.930 19.638,8.604 19.478,8.604 C17.571,9.128 16.228,13.535 16.234,13.541 C10.007,9.332 9.595,10.141 9.595,10.153 C9.106,11.247 11.001,12.633 11.001,12.633 L10.460,12.649 C10.460,12.649 9.663,12.623 9.837,13.193 C10.015,13.920 10.959,14.674 10.967,14.682 C11.432,14.903 12.013,14.694 12.013,14.694 C12.013,14.694 11.397,15.016 11.007,15.260 C10.364,15.675 10.826,16.044 10.896,16.114 C11.733,17.011 13.048,16.953 13.048,16.953 C13.048,16.953 12.437,17.686 12.432,17.965 C12.432,18.420 12.839,18.699 12.873,18.734 C13.237,18.984 13.776,19.013 13.780,19.013 C10.411,22.588 6.351,18.992 6.351,18.979 C6.804,21.599 10.653,24.125 17.420,23.147 C22.908,22.274 24.663,16.254 24.663,16.254 C24.663,16.254 26.931,16.382 27.187,15.031 C26.477,15.160 25.454,14.950 25.454,14.950 C25.454,14.950 27.198,14.193 27.280,13.285 C26.256,14.076 24.733,13.855 24.698,13.855 Z"/>
</g>
</svg>36.437,21.250 Z"/>
</g>
</svg>